<svg xmlns="http://www.w3.org/2000/svg" viewBox="0 0 1000 600">
  <rect width="1000" height="600" fill="none"/>
  <g>
    <ellipse cx="280" cy="420" rx="74" ry="74" fill="#111"/>
    <ellipse cx="725" cy="420" rx="74" ry="74" fill="#111"/>
    <ellipse cx="280" cy="420" rx="42" ry="42" fill="#bcbcbc"/>
    <ellipse cx="725" cy="420" rx="42" ry="42" fill="#bcbcbc"/>
    <path d="M145 333h86l96-92h202l94 56h139c32 0 58 25 58 58v27H135v-19c0-17 12-30 28-30z" fill="#1c1c1c"/>
    <path d="M325 246h152c22 0 39 7 54 20l49 43H290l35-63z" fill="#2a2a2a"/>
    <path d="M422 255h104c17 0 32 5 47 17l31 27H388l34-44z" fill="#95a7b6"/>
    <rect x="156" y="337" width="664" height="25" fill="#f9bf1a" opacity=".92"/>
    <path d="M631 297h143c26 0 46 19 46 44v16H631z" fill="#202020"/>
    <rect x="128" y="379" width="732" height="18" rx="9" fill="#303030"/>
  </g>
</svg>
